<svg version="1.1" id="Layer_1" xmlns="http://www.w3.org/2000/svg" xmlns:xlink="http://www.w3.org/1999/xlink" x="0px" y="0px"
	 width="100%" viewBox="0 0 500 500" enable-background="new 0 0 500 500" xml:space="preserve">
<path fill="#000000" opacity="1.000000" stroke="none" 
	d="
M501.000000,190.000000 
	C501.000000,293.999969 501.000000,397.499969 501.000000,500.999939 
	C334.333405,500.999969 167.666794,500.999969 1.000145,501.000000 
	C1.000097,334.333435 1.000097,167.666870 1.000048,1.000234 
	C167.666519,1.000156 334.333038,1.000156 500.999786,1.000078 
	C501.000000,63.833332 501.000000,126.666664 501.000000,190.000000 
M430.004761,100.991829 
	C430.004761,100.991829 430.072449,100.977425 429.854095,100.278885 
	C429.385681,100.197990 428.917236,100.117096 428.477539,100.043045 
	C428.477539,100.043045 428.504150,100.055725 427.985413,99.417648 
	C427.474030,99.289658 426.962646,99.161667 426.480194,99.052284 
	C426.480194,99.052284 426.514313,99.056358 426.040863,98.483643 
	C425.359772,98.295822 424.678711,98.108009 424.005249,97.988182 
	C424.005249,97.988182 424.067291,97.959404 423.908813,97.312424 
	C423.274109,97.181587 422.639435,97.050743 422.005707,96.988190 
	C422.005707,96.988190 422.069275,96.963196 421.901428,96.320969 
	C421.269073,96.187607 420.636749,96.054245 420.005371,95.988869 
	C420.005371,95.988869 420.068939,95.964767 419.901184,95.322357 
	C419.268494,95.188377 418.635803,95.054390 418.004791,94.988380 
	C418.004791,94.988380 418.067566,94.962227 417.830536,94.261536 
	C416.225586,93.821381 414.620605,93.381218 413.007050,93.008148 
	C413.007050,93.008148 413.074677,93.009941 412.668457,92.462715 
	C411.235474,92.065117 409.802460,91.667511 407.970093,90.619705 
	C387.305115,80.470757 366.640106,70.321808 345.306580,59.852654 
	C339.874329,57.062653 334.511139,54.127140 328.997040,51.509602 
	C311.620636,43.261093 294.159668,35.190701 276.789795,26.928621 
	C269.480438,23.451876 262.461456,19.323051 255.010773,16.207281 
	C252.344116,15.092115 248.345184,15.090989 245.719910,16.276608 
	C224.830826,25.710484 204.110550,35.519527 183.370682,45.281868 
	C171.553406,50.844315 159.796432,56.534878 147.303116,62.231567 
	C135.324997,68.136620 123.371063,74.091461 111.360077,79.928902 
	C103.580956,83.709625 95.718460,87.318787 87.310608,91.082153 
	C86.853401,91.381874 86.396194,91.681602 85.995239,92.001869 
	C85.995239,92.001869 85.966888,91.949127 85.169640,92.032524 
	C76.090714,96.344833 67.011787,100.657150 57.995132,104.992966 
	C57.995132,104.992966 57.997692,104.926460 57.508228,105.079201 
	C57.400211,105.370148 57.292191,105.661087 56.876755,106.622086 
	C55.897236,108.438354 54.478725,110.148407 54.009426,112.088120 
	C50.957508,124.702194 48.111828,137.366180 44.866329,150.735809 
	C42.648449,160.083878 40.430569,169.431931 38.038883,179.602432 
	C37.040417,183.799789 35.896076,187.968948 35.077999,192.201172 
	C33.879078,198.403656 32.913742,204.651306 31.213013,211.267105 
	C29.807419,215.895248 28.128227,220.460144 27.041193,225.161926 
	C20.584883,253.087677 14.119837,281.013672 8.076552,309.029907 
	C7.280630,312.719788 7.770606,317.560852 9.606484,320.751709 
	C12.829652,326.353760 17.566162,331.082611 21.648918,336.193085 
	C31.042021,347.950745 40.467163,359.683167 49.797100,371.490784 
	C59.622234,383.925110 69.351753,396.434998 79.127808,409.607605 
	C80.903145,411.752899 82.709671,413.873260 84.448608,416.047668 
	C93.937775,427.913025 103.450844,439.759583 112.876297,451.675446 
	C121.069336,462.033325 129.048218,472.563446 137.400696,482.789612 
	C138.750687,484.442413 141.554306,484.907928 144.176743,486.702881 
	C154.117828,486.745392 164.058929,486.787933 174.926361,486.982574 
	C190.282089,486.935425 205.637833,486.888275 221.920792,486.990479 
	C234.276108,486.947968 246.631409,486.905457 259.912354,487.031189 
	C278.652649,487.013855 297.392914,486.996521 316.391571,487.126129 
	C316.391571,487.126129 316.643280,486.968079 317.179901,487.710083 
	C328.796021,487.790466 340.412140,487.878357 352.028412,487.914490 
	C352.368378,487.915558 352.710052,487.371246 353.711670,487.025757 
	C354.191345,486.674622 354.671051,486.323486 355.844238,486.018799 
	C358.891510,482.874481 362.139221,479.898438 364.947632,476.553589 
	C372.704224,467.315216 380.355621,457.985565 387.903748,448.575806 
	C398.077576,435.892822 408.137085,423.117798 418.201630,410.347626 
	C421.901001,405.653748 425.474731,400.860901 429.706879,395.790344 
	C436.657990,387.168610 443.606415,378.544708 450.560791,369.925598 
	C463.038025,354.461487 475.628876,339.086487 487.880310,323.445526 
	C489.729675,321.084534 491.191010,317.317688 490.782776,314.497711 
	C489.576752,306.166626 487.394653,297.972412 485.500397,289.746307 
	C482.400085,276.282349 479.193237,262.842896 476.091400,249.379272 
	C472.981415,235.880310 469.945007,222.364380 466.912781,208.079147 
	C466.617706,207.156143 466.240631,206.250595 466.039703,205.307526 
	C462.996307,191.020294 460.084625,176.704010 456.919617,162.443909 
	C453.758026,148.199387 449.599213,134.129654 447.302673,119.755592 
	C445.688416,109.651726 440.613037,104.375259 430.999207,101.558243 
	C430.666504,101.346405 430.333801,101.134567 430.004761,100.991829 
z"/>
<path fill="#069B95" opacity="1.000000" stroke="none" 
	d="
M79.123047,408.911865 
	C69.351753,396.434998 59.622234,383.925110 49.797100,371.490784 
	C40.467163,359.683167 31.042021,347.950745 21.648918,336.193085 
	C17.566162,331.082611 12.829652,326.353760 9.606484,320.751709 
	C7.770606,317.560852 7.280630,312.719788 8.076552,309.029907 
	C14.119837,281.013672 20.584883,253.087677 27.041193,225.161926 
	C28.128227,220.460144 29.807419,215.895248 31.846735,211.306244 
	C38.936638,212.777344 45.392818,214.209320 51.870392,216.089233 
	C51.919243,217.035980 52.063679,217.561356 51.957314,218.029770 
	C47.489429,237.706207 43.005661,257.379059 38.507938,277.048676 
	C37.015217,283.576721 35.479477,290.094940 33.685265,297.814301 
	C43.502846,293.851013 52.480316,291.106873 60.595993,286.755432 
	C74.665154,279.211853 88.412262,271.005829 101.887642,262.437866 
	C111.255882,256.481323 119.943207,249.453857 129.097839,243.208252 
	C132.131866,248.333023 135.335510,252.991928 137.788727,258.017151 
	C140.797012,264.179321 144.831436,269.848145 150.856186,272.406128 
	C155.965973,274.575592 157.338806,277.360748 156.882812,282.344910 
	C154.814713,285.462921 152.971725,288.328003 150.943787,291.465759 
	C142.677292,298.827667 134.794876,306.160583 126.474655,312.957550 
	C106.365929,329.384888 84.764061,342.948700 57.827480,346.490906 
	C65.241737,355.894775 72.447029,364.934113 79.539490,374.061096 
	C85.136421,381.263550 90.594490,388.573853 95.812347,396.005829 
	C90.048004,400.420868 84.585533,404.666382 79.123047,408.911865 
z"/>
<path fill="#EB3327" opacity="1.000000" stroke="none" 
	d="
M345.975128,60.172859 
	C366.640106,70.321808 387.305115,80.470757 408.452576,91.033401 
	C410.314941,91.968048 411.694794,92.488991 413.074677,93.009941 
	C413.074677,93.009941 413.007050,93.008148 413.176483,93.294434 
	C414.919800,94.041222 416.493683,94.501724 418.067566,94.962227 
	C418.067566,94.962227 418.004791,94.988380 418.049377,95.312752 
	C418.752289,95.746338 419.410614,95.855553 420.068939,95.964767 
	C420.068939,95.964767 420.005371,95.988869 420.045471,96.315536 
	C420.746796,96.749207 421.408051,96.856201 422.069275,96.963196 
	C422.069275,96.963196 422.005707,96.988190 422.048523,97.316467 
	C422.750000,97.749634 423.408630,97.854523 424.067291,97.959404 
	C424.067291,97.959404 424.005249,97.988182 424.101318,98.349579 
	C424.969696,98.826096 425.742004,98.941223 426.514313,99.056358 
	C426.514313,99.056358 426.480194,99.052284 426.659821,99.435677 
	C427.394348,99.897949 427.949249,99.976837 428.504150,100.055725 
	C428.504150,100.055725 428.477539,100.043045 428.572144,100.404358 
	C429.135315,100.836258 429.603882,100.906845 430.072449,100.977425 
	C430.072449,100.977425 430.004761,100.991829 430.044586,101.284988 
	C430.485901,101.753487 430.887421,101.928818 431.288910,102.104156 
	C440.613037,104.375259 445.688416,109.651726 447.302673,119.755592 
	C449.599213,134.129654 453.758026,148.199387 456.919617,162.443909 
	C460.084625,176.704010 462.996307,191.020294 466.039703,205.307526 
	C466.240631,206.250595 466.617706,207.156143 466.631653,208.713379 
	C462.733429,213.626434 449.902954,215.751846 445.051697,212.478210 
	C442.647217,201.981155 440.267029,191.880890 438.010773,181.753006 
	C434.846405,167.548767 431.774261,153.323959 428.621552,138.920105 
	C410.173126,151.480911 383.076691,199.740768 369.496948,231.857788 
	C367.783966,231.143768 366.122986,230.706146 365.140808,229.642044 
	C357.300629,221.147949 348.941223,213.748566 336.356293,213.932297 
	C335.534790,213.944275 334.316193,213.290268 333.937103,212.591034 
	C332.049866,209.110077 330.381958,205.510239 328.794189,201.606323 
	C329.282654,198.151672 329.613739,195.042908 329.983826,191.553635 
	C332.747406,183.701721 335.472046,176.230331 338.386658,168.680115 
	C338.789337,168.416962 338.941284,168.191635 339.025055,167.970673 
	C339.017639,168.016052 338.926147,168.006989 339.294464,167.973694 
	C340.429535,165.602188 341.196259,163.263977 341.973389,160.959305 
	C341.983795,160.992844 341.913605,160.994202 342.277527,161.020844 
	C344.448456,156.986908 346.255432,152.926315 348.179932,148.540909 
	C357.332764,130.680084 368.968781,115.361794 386.719543,104.211128 
	C381.219818,101.682709 376.466461,99.604553 371.806732,97.334213 
	C359.897156,91.531586 348.029297,85.643326 336.136719,79.427284 
	C339.410797,72.767792 342.692963,66.470322 345.975128,60.172859 
z"/>
<path fill="#F38024" opacity="1.000000" stroke="none" 
	d="
M345.640869,60.012753 
	C342.692963,66.470322 339.410797,72.767792 335.763733,79.469315 
	C311.153931,67.787148 286.909058,55.700912 262.664215,43.614677 
	C262.099365,43.978249 261.534515,44.341820 260.969666,44.705391 
	C263.619568,56.680584 265.809021,68.782684 269.063690,80.591202 
	C271.714966,90.210640 275.640991,99.478737 278.964844,109.297180 
	C280.598206,112.974243 282.268555,116.256752 283.961578,119.524170 
	C283.984253,119.509071 283.929871,119.511223 283.867493,119.902206 
	C284.230713,120.864243 284.656342,121.435310 285.046692,122.000732 
	C285.011414,121.995087 285.028259,121.925659 284.968567,122.285820 
	C285.257355,122.944527 285.605835,123.243073 285.961670,123.526688 
	C285.968964,123.511757 285.937683,123.500511 285.830688,123.890762 
	C286.484802,125.828476 287.245880,127.375931 288.338806,129.065796 
	C291.421661,134.728607 294.172607,140.249039 296.893280,146.190628 
	C296.898224,146.890533 296.933441,147.169250 296.692383,147.631027 
	C290.260345,149.936890 284.141541,152.175232 277.940247,154.155350 
	C268.746582,157.090958 261.124542,162.161743 255.333313,169.631592 
	C255.721313,165.327530 256.785339,161.377518 256.578278,157.495300 
	C256.039856,147.400528 251.073715,144.311737 241.531509,148.027878 
	C240.052979,142.821503 235.906738,140.857559 231.004333,139.537506 
	C226.620972,129.978470 221.869751,120.945084 217.991211,111.551399 
	C212.378357,97.957291 208.232132,83.910202 209.056061,68.931313 
	C209.272141,65.003067 210.061752,61.106365 210.645477,56.767685 
	C198.867035,62.304043 187.459961,67.665840 175.712509,73.010574 
	C174.915924,73.355606 174.459717,73.717705 174.004395,74.045067 
	C174.005280,74.010338 174.073380,74.024109 173.719757,73.972000 
	C173.066162,74.260254 172.766205,74.600624 172.480225,74.966187 
	C172.494171,74.991364 172.487198,74.934402 172.067444,74.904068 
	C171.253937,75.230957 170.860184,75.588181 170.482574,75.962585 
	C170.498734,75.979767 170.495041,75.932648 170.100281,75.813812 
	C169.138016,76.158134 168.570526,76.621284 168.004822,77.049667 
	C168.006622,77.014908 168.068100,77.047554 167.697388,76.888489 
	C163.564102,78.175056 159.801514,79.620689 156.028198,80.684532 
	C153.349106,74.257751 150.680710,68.212746 148.012314,62.167747 
	C159.796432,56.534878 171.553406,50.844315 183.370682,45.281868 
	C204.110550,35.519527 224.830826,25.710484 245.719910,16.276608 
	C248.345184,15.090989 252.344116,15.092115 255.010773,16.207281 
	C262.461456,19.323051 269.480438,23.451876 276.789795,26.928621 
	C294.159668,35.190701 311.620636,43.261093 328.997040,51.509602 
	C334.511139,54.127140 339.874329,57.062653 345.640869,60.012753 
z"/>
<path fill="#F9B11C" opacity="1.000000" stroke="none" 
	d="
M147.657715,62.199657 
	C150.680710,68.212746 153.349106,74.257751 155.894547,80.946144 
	C155.519073,82.091492 155.266541,82.593445 155.003021,83.051331 
	C154.992065,83.007263 155.079987,82.984566 154.890198,83.082123 
	C154.432617,83.314659 154.249207,83.523659 153.774200,83.887146 
	C145.923645,87.486923 138.463959,91.038391 130.970078,94.516205 
	C123.986572,97.757156 116.966705,100.919762 109.842117,103.992966 
	C109.517418,104.177628 109.313431,104.486183 108.875488,104.888374 
	C108.473694,104.989418 108.305862,104.996819 107.744820,104.993439 
	C104.241318,106.678497 101.131020,108.374336 98.011490,110.038788 
	C98.002266,110.007408 98.061989,110.034111 97.675858,109.935669 
	C95.502579,111.001816 93.715424,112.166405 91.960678,113.502426 
	C91.993095,113.673874 91.824692,113.979515 91.608261,114.029724 
	C91.557541,114.645653 91.723259,115.211365 92.242996,115.883263 
	C103.297981,122.310150 113.589104,129.513992 124.807327,134.720078 
	C137.793289,140.746536 151.493408,145.313431 165.079468,149.938278 
	C173.487366,152.800415 182.260101,154.590881 191.170349,157.126495 
	C191.135025,160.786194 191.281418,164.318832 190.364838,167.549927 
	C188.218979,175.114410 186.412399,182.564514 188.491211,190.487076 
	C188.871735,191.937302 188.448502,194.281982 187.456482,195.273346 
	C185.032349,197.695847 182.058014,199.567780 179.036865,201.378967 
	C171.053192,195.547318 170.071274,195.553406 161.873886,201.154602 
	C154.268448,200.082642 147.085236,199.054947 139.502197,198.014648 
	C111.991676,191.487518 86.022560,182.634949 65.302643,160.999420 
	C62.711884,172.139725 60.445518,182.290253 57.972080,192.390060 
	C56.065922,200.173492 53.899632,207.893234 51.848999,215.641296 
	C45.392818,214.209320 38.936638,212.777344 32.164665,211.112534 
	C32.913742,204.651306 33.879078,198.403656 35.077999,192.201172 
	C35.896076,187.968948 37.040417,183.799789 38.457081,179.119797 
	C40.344582,173.263397 41.991695,167.930023 43.225101,162.502655 
	C44.157005,158.401993 44.560162,154.181168 45.198647,150.013824 
	C48.111828,137.366180 50.957508,124.702194 54.009426,112.088120 
	C54.478725,110.148407 55.897236,108.438354 57.239075,106.179871 
	C57.882858,105.540230 58.014957,105.269829 57.997692,104.926460 
	C57.997692,104.926460 57.995132,104.992966 58.346848,105.092407 
	C67.788010,100.777611 76.877449,96.363373 85.966888,91.949127 
	C85.966888,91.949127 85.995239,92.001869 86.240707,91.900864 
	C86.955215,91.534843 87.424263,91.269829 87.893318,91.004822 
	C95.718460,87.318787 103.580956,83.709625 111.360077,79.928902 
	C123.371063,74.091461 135.324997,68.136620 147.657715,62.199657 
z"/>
<path fill="#AF3B64" opacity="1.000000" stroke="none" 
	d="
M445.131226,212.862656 
	C449.902954,215.751846 462.733429,213.626434 466.613403,209.101761 
	C469.945007,222.364380 472.981415,235.880310 476.091400,249.379272 
	C479.193237,262.842896 482.400085,276.282349 485.500397,289.746307 
	C487.394653,297.972412 489.576752,306.166626 490.782776,314.497711 
	C491.191010,317.317688 489.729675,321.084534 487.880310,323.445526 
	C475.628876,339.086487 463.038025,354.461487 450.560791,369.925598 
	C443.606415,378.544708 436.657990,387.168610 429.049255,395.890564 
	C422.884979,391.618500 417.378296,387.246216 412.045441,382.574646 
	C415.407990,378.355011 418.636017,374.465851 421.777618,370.508118 
	C429.176056,361.187683 436.519043,351.823273 443.912628,342.498962 
	C448.180389,337.116699 452.503052,331.777893 457.481964,325.570557 
	C454.145111,325.216095 452.070984,324.995789 449.846985,324.422516 
	C449.139404,323.786224 448.583160,323.259247 448.023804,323.255951 
	C438.965363,323.202759 429.906006,323.171692 420.848602,323.281189 
	C419.916290,323.292450 418.995239,324.232635 417.622681,324.853119 
	C411.670776,325.658051 406.134491,326.167664 400.665253,327.079529 
	C383.861267,329.881256 367.082947,332.837006 350.950073,335.619843 
	C350.563538,338.091766 350.318237,339.660339 349.776123,340.911011 
	C349.369659,335.501648 348.156403,330.124664 349.383942,325.379059 
	C351.816071,315.976227 350.345947,307.568573 345.909332,299.332397 
	C344.950714,297.552826 343.852264,295.848572 342.620728,293.777466 
	C345.122131,293.088959 346.939453,292.588745 349.123596,292.017151 
	C350.977814,289.949036 353.080902,288.145233 353.783752,285.902618 
	C354.522827,283.544312 354.664429,282.381531 357.782623,282.448029 
	C361.354523,282.524231 365.105682,281.325195 366.511871,276.875519 
	C377.984650,274.414490 388.993896,271.674530 400.115906,269.515442 
	C405.614258,268.448029 411.320526,268.451477 417.362366,268.015137 
	C419.918396,267.747803 422.050690,267.135864 424.169952,267.178101 
	C431.474182,267.323669 438.773804,267.697632 446.032959,268.011902 
	C445.990723,268.039246 445.928009,267.960571 446.067413,268.012451 
	C446.206818,268.064301 446.433899,268.336731 446.433899,268.336731 
	C446.433899,268.336731 446.818329,268.228363 447.211853,268.153595 
	C450.952667,268.969879 454.299957,269.860901 457.780365,270.787354 
	C453.492432,251.151474 449.311829,232.007065 445.131226,212.862656 
z"/>
<path fill="#2362AC" opacity="1.000000" stroke="none" 
	d="
M79.125427,409.259735 
	C84.585533,404.666382 90.048004,400.420868 96.121429,396.162292 
	C106.514275,408.482635 116.308701,420.806122 126.072350,433.153931 
	C130.475922,438.722992 134.818283,444.340424 139.807663,450.728790 
	C140.848557,448.046539 141.549149,446.584991 141.989426,445.048798 
	C144.229279,437.234222 146.921921,429.502289 148.480286,421.550171 
	C151.054260,408.415436 153.464462,395.194855 154.845413,381.896423 
	C156.039474,370.397766 155.706650,358.740540 156.442322,347.066864 
	C160.327454,347.211578 164.219223,346.524841 167.237915,347.840820 
	C177.604614,352.360352 187.941589,354.990326 198.680344,349.774323 
	C201.867447,348.226318 204.414246,347.496674 207.138824,350.353729 
	C206.964920,351.122223 206.846069,351.556854 206.454590,352.148682 
	C205.857803,353.264801 205.533676,354.223694 205.156708,355.549500 
	C204.920395,356.886169 204.736908,357.855896 204.264404,358.955688 
	C204.220383,360.430725 204.465378,361.775665 204.789703,363.414825 
	C204.954071,364.106201 205.039154,364.503357 205.113525,365.225830 
	C205.719604,366.017273 206.336380,366.483398 207.219208,367.137146 
	C208.061020,367.966949 208.636795,368.609131 209.167160,369.691437 
	C209.030914,373.419128 208.940079,376.706696 208.527954,380.270233 
	C208.145355,386.017944 207.972809,391.491577 208.063766,396.960815 
	C208.119904,400.334656 208.577713,403.701843 208.918976,407.510803 
	C208.661087,412.660675 208.763290,417.447388 207.938889,422.068817 
	C205.387756,436.370117 201.899857,450.405182 193.484894,462.919952 
	C191.418228,466.338135 194.435349,465.055511 195.380188,465.063141 
	C204.584625,465.137451 213.790298,465.057861 223.457260,465.113403 
	C235.604111,465.305359 247.289307,465.406067 258.979004,465.943359 
	C258.657684,472.856842 258.331909,479.333771 257.539612,485.871033 
	C245.047119,485.979736 233.021072,486.028076 220.534058,485.985657 
	C204.721848,485.934845 189.370605,485.974762 173.562729,485.887146 
	C163.299377,485.813843 153.492676,485.868042 143.685974,485.922272 
	C141.554306,484.907928 138.750687,484.442413 137.400696,482.789612 
	C129.048218,472.563446 121.069336,462.033325 112.876297,451.675446 
	C103.450844,439.759583 93.937775,427.913025 84.448608,416.047668 
	C82.709671,413.873260 80.903145,411.752899 79.125427,409.259735 
z"/>
<path fill="#60459A" opacity="1.000000" stroke="none" 
	d="
M258.006104,485.810699 
	C258.331909,479.333771 258.657684,472.856842 259.431702,465.845520 
	C263.572510,465.256317 267.265076,465.201447 271.348633,465.283020 
	C287.110626,465.494598 302.481628,465.569733 318.301300,465.794373 
	C321.532715,465.973267 324.329041,466.184540 327.094330,465.978821 
	C329.647797,465.788910 329.847198,464.563812 327.544922,462.877563 
	C316.117493,445.480774 303.143555,429.788452 287.606659,416.266968 
	C278.337433,408.200165 269.136139,400.055328 259.933411,391.579651 
	C261.642914,389.326843 263.031708,387.017029 265.052399,385.623566 
	C275.901794,378.141754 284.254669,369.326263 283.140961,354.853333 
	C283.107788,354.422119 283.485138,353.959259 283.759399,353.298370 
	C285.168518,353.164307 286.623444,353.025909 288.323059,353.070679 
	C289.348389,353.869446 290.128998,354.485046 290.979126,355.427124 
	C291.780365,356.020752 292.512085,356.287903 293.557983,356.606262 
	C294.505829,356.631073 295.139557,356.604706 296.091034,356.700073 
	C296.935974,356.494293 297.463104,356.166809 298.376740,355.847656 
	C300.941833,356.926605 303.120422,357.997284 305.346619,359.399231 
	C306.006012,360.687927 306.407654,361.934326 307.263245,362.556580 
	C313.485992,367.082275 319.931702,371.308868 326.058502,375.957458 
	C339.520874,386.171875 351.929138,397.510864 361.322876,411.716400 
	C365.343109,417.795898 368.797699,424.249451 372.787415,431.003845 
	C376.201752,426.783386 379.539337,422.686523 382.845490,418.564514 
	C387.945496,412.206024 392.984131,405.797913 398.123505,399.471527 
	C402.653076,393.895844 407.284973,388.403259 411.871643,382.873962 
	C417.378296,387.246216 422.884979,391.618500 428.748718,396.052002 
	C425.474731,400.860901 421.901001,405.653748 418.201630,410.347626 
	C408.137085,423.117798 398.077576,435.892822 387.903748,448.575806 
	C380.355621,457.985565 372.704224,467.315216 364.947632,476.553589 
	C362.139221,479.898438 358.891510,482.874481 355.094727,485.980560 
	C353.837799,486.103577 353.330414,486.264801 352.388947,486.417053 
	C340.184326,486.594696 328.413818,486.781403 316.643280,486.968079 
	C316.643280,486.968079 316.391571,487.126129 316.007202,486.694092 
	C296.751343,486.204895 277.879913,486.147675 258.754883,486.030609 
	C258.336212,485.917389 258.171173,485.864044 258.006104,485.810699 
z"/>
<path fill="#BFB1DD" opacity="1.000000" stroke="none" 
	d="
M259.008453,486.090485 
	C277.879913,486.147675 296.751343,486.204895 315.877991,486.620667 
	C297.392914,486.996521 278.652649,487.013855 259.459106,486.754089 
	C259.005890,486.476959 259.008453,486.090485 259.008453,486.090485 
z"/>
<path fill="#FDE9B1" opacity="1.000000" stroke="none" 
	d="
M85.568268,91.990829 
	C76.877449,96.363373 67.788010,100.777611 58.315716,105.080658 
	C67.011787,100.657150 76.090714,96.344833 85.568268,91.990829 
z"/>
<path fill="#FCDE9A" opacity="1.000000" stroke="none" 
	d="
M45.032490,150.374817 
	C44.560162,154.181168 44.157005,158.401993 43.225101,162.502655 
	C41.991695,167.930023 40.344582,173.263397 38.543983,178.708588 
	C40.430569,169.431931 42.648449,160.083878 45.032490,150.374817 
z"/>
<path fill="#CCE8FF" opacity="1.000000" stroke="none" 
	d="
M174.019379,486.014679 
	C189.370605,485.974762 204.721848,485.934845 220.532867,486.176819 
	C220.992676,486.458740 220.993561,486.841095 220.993561,486.841095 
	C205.637833,486.888275 190.282089,486.935425 174.462921,486.702454 
	C173.999496,486.422302 174.019379,486.014679 174.019379,486.014679 
z"/>
<path fill="#FFEBFF" opacity="1.000000" stroke="none" 
	d="
M316.911591,487.339081 
	C328.413818,486.781403 340.184326,486.594696 352.387695,486.600891 
	C352.820496,486.793793 353.050934,487.081238 353.050934,487.081238 
	C352.710052,487.371246 352.368378,487.915558 352.028412,487.914490 
	C340.412140,487.878357 328.796021,487.790466 316.911591,487.339081 
z"/>
<path fill="#BBD5FA" opacity="1.000000" stroke="none" 
	d="
M221.457184,486.915771 
	C220.993561,486.841095 220.992676,486.458740 220.993866,486.267578 
	C233.021072,486.028076 245.047119,485.979736 257.539612,485.871033 
	C258.171173,485.864044 258.336212,485.917389 258.754883,486.030609 
	C259.008453,486.090485 259.005890,486.476959 258.996307,486.669952 
	C246.631409,486.905457 234.276108,486.947968 221.457184,486.915771 
z"/>
<path fill="#DFEFFF" opacity="1.000000" stroke="none" 
	d="
M173.562729,485.887146 
	C174.019379,486.014679 173.999496,486.422302 173.999756,486.626373 
	C164.058929,486.787933 154.117828,486.745392 143.931366,486.312561 
	C153.492676,485.868042 163.299377,485.813843 173.562729,485.887146 
z"/>
<path fill="#F8B3AC" opacity="1.000000" stroke="none" 
	d="
M417.949036,94.611877 
	C416.493683,94.501724 414.919800,94.041222 413.180786,93.260887 
	C414.620605,93.381218 416.225586,93.821381 417.949036,94.611877 
z"/>
<path fill="#F8B3AC" opacity="1.000000" stroke="none" 
	d="
M412.871582,92.736328 
	C411.694794,92.488991 410.314941,91.968048 408.652283,91.358505 
	C409.802460,91.667511 411.235474,92.065117 412.871582,92.736328 
z"/>
<path fill="#BFB1DD" opacity="1.000000" stroke="none" 
	d="
M353.381287,487.053497 
	C353.050934,487.081238 352.820496,486.793793 352.821777,486.609924 
	C353.330414,486.264801 353.837799,486.103577 354.747955,485.957336 
	C354.671051,486.323486 354.191345,486.674622 353.381287,487.053497 
z"/>
<path fill="#FDE9B1" opacity="1.000000" stroke="none" 
	d="
M87.601959,91.043488 
	C87.424263,91.269829 86.955215,91.534843 86.212585,91.890594 
	C86.396194,91.681602 86.853401,91.381874 87.601959,91.043488 
z"/>
<path fill="#F8B3AC" opacity="1.000000" stroke="none" 
	d="
M419.985046,95.643562 
	C419.410614,95.855553 418.752289,95.746338 418.048523,95.278763 
	C418.635803,95.054390 419.268494,95.188377 419.985046,95.643562 
z"/>
<path fill="#F8B3AC" opacity="1.000000" stroke="none" 
	d="
M421.985352,96.642082 
	C421.408051,96.856201 420.746796,96.749207 420.044983,96.281555 
	C420.636749,96.054245 421.269073,96.187607 421.985352,96.642082 
z"/>
<path fill="#F8B3AC" opacity="1.000000" stroke="none" 
	d="
M426.277588,98.770004 
	C425.742004,98.941223 424.969696,98.826096 424.097504,98.315582 
	C424.678711,98.108009 425.359772,98.295822 426.277588,98.770004 
z"/>
<path fill="#F8B3AC" opacity="1.000000" stroke="none" 
	d="
M423.988037,97.635910 
	C423.408630,97.854523 422.750000,97.749634 422.048035,97.282326 
	C422.639435,97.050743 423.274109,97.181587 423.988037,97.635910 
z"/>
<path fill="#F8B3AC" opacity="1.000000" stroke="none" 
	d="
M428.244781,99.736687 
	C427.949249,99.976837 427.394348,99.897949 426.645355,99.426376 
	C426.962646,99.161667 427.474030,99.289658 428.244781,99.736687 
z"/>
<path fill="#F8B3AC" opacity="1.000000" stroke="none" 
	d="
M429.963257,100.628159 
	C429.603882,100.906845 429.135315,100.836258 428.557800,100.400940 
	C428.917236,100.117096 429.385681,100.197990 429.963257,100.628159 
z"/>
<path fill="#F8B3AC" opacity="1.000000" stroke="none" 
	d="
M431.144043,101.831200 
	C430.887421,101.928818 430.485901,101.753487 430.042755,101.250443 
	C430.333801,101.134567 430.666504,101.346405 431.144043,101.831200 
z"/>
<path fill="#FDE9B1" opacity="1.000000" stroke="none" 
	d="
M57.752960,105.002831 
	C58.014957,105.269829 57.882858,105.540230 57.392784,105.844849 
	C57.292191,105.661087 57.400211,105.370148 57.752960,105.002831 
z"/>
<path fill="#000000" opacity="1.000000" stroke="none" 
	d="
M51.870396,216.089233 
	C53.899632,207.893234 56.065922,200.173492 57.972080,192.390060 
	C60.445518,182.290253 62.711884,172.139725 65.302643,160.999420 
	C86.022560,182.634949 111.991676,191.487518 139.671097,198.387222 
	C144.755096,199.838715 149.270401,200.905029 153.436737,201.980896 
	C150.939941,204.533630 148.792114,207.076797 146.074066,210.295151 
	C143.849350,210.660278 139.092773,210.080811 136.840271,212.183609 
	C134.469269,214.397064 134.492233,219.174896 133.469177,222.832245 
	C133.571121,223.738174 132.320023,223.926682 131.061874,224.013855 
	C126.897285,224.302429 123.068192,228.216812 124.104950,232.052567 
	C125.125748,235.829224 127.278595,239.299881 128.934723,242.904816 
	C119.943207,249.453857 111.255882,256.481323 101.887642,262.437866 
	C88.412262,271.005829 74.665154,279.211853 60.595993,286.755432 
	C52.480316,291.106873 43.502846,293.851013 33.685265,297.814301 
	C35.479477,290.094940 37.015217,283.576721 38.507938,277.048676 
	C43.005661,257.379059 47.489429,237.706207 51.957314,218.029770 
	C52.063679,217.561356 51.919243,217.035980 51.870396,216.089233 
z"/>
<path fill="#000000" opacity="1.000000" stroke="none" 
	d="
M156.048767,347.153412 
	C155.706650,358.740540 156.039474,370.397766 154.845413,381.896423 
	C153.464462,395.194855 151.054260,408.415436 148.480286,421.550171 
	C146.921921,429.502289 144.229279,437.234222 141.989426,445.048798 
	C141.549149,446.584991 140.848557,448.046539 139.807663,450.728790 
	C134.818283,444.340424 130.475922,438.722992 126.072350,433.153931 
	C116.308701,420.806122 106.514275,408.482635 96.423309,395.992737 
	C90.594490,388.573853 85.136421,381.263550 79.539490,374.061096 
	C72.447029,364.934113 65.241737,355.894775 57.827480,346.490906 
	C84.764061,342.948700 106.365929,329.384888 126.474655,312.957550 
	C134.794876,306.160583 142.677292,298.827667 151.229034,291.599731 
	C152.336655,292.643494 152.974060,293.826019 153.630966,295.044708 
	C143.808853,298.892944 142.590256,302.925018 148.509659,310.744629 
	C138.959732,315.807770 138.871933,317.491150 147.572739,328.707916 
	C142.114273,334.750488 141.744888,336.394318 146.467972,340.865448 
	C149.198654,343.450470 152.825348,345.088928 156.048767,347.153412 
z"/>
<path fill="#5F459A" opacity="1.000000" stroke="none" 
	d="
M156.442322,347.066864 
	C152.825348,345.088928 149.198654,343.450470 146.467972,340.865448 
	C141.744888,336.394318 142.114273,334.750488 147.572739,328.707916 
	C138.871933,317.491150 138.959732,315.807770 148.509659,310.744629 
	C142.590256,302.925018 143.808853,298.892944 153.630966,295.044708 
	C152.974060,293.826019 152.336655,292.643494 151.414001,291.327026 
	C152.971725,288.328003 154.814713,285.462921 157.278412,282.329285 
	C166.407532,280.806915 174.337982,283.038116 182.289703,285.741943 
	C186.688416,287.237671 191.376694,287.881836 196.079376,289.242676 
	C197.540344,290.912506 198.628906,292.684174 200.211288,293.512329 
	C207.581573,297.369537 212.962067,302.821503 215.649780,310.843597 
	C216.074387,312.110931 217.262421,313.472107 218.457977,314.074585 
	C225.975388,317.863068 233.594757,321.449310 241.084915,325.439209 
	C240.540527,326.236359 240.154968,326.790405 239.633240,327.143005 
	C232.027084,332.283173 224.353119,337.324768 216.805496,342.549072 
	C213.474045,344.854980 210.390152,347.518585 207.193878,350.019836 
	C204.414246,347.496674 201.867447,348.226318 198.680344,349.774323 
	C187.941589,354.990326 177.604614,352.360352 167.237915,347.840820 
	C164.219223,346.524841 160.327454,347.211578 156.442322,347.066864 
z"/>
<path fill="#2162AC" opacity="1.000000" stroke="none" 
	d="
M195.934448,288.909851 
	C191.376694,287.881836 186.688416,287.237671 182.289703,285.741943 
	C174.337982,283.038116 166.407532,280.806915 157.503510,282.076355 
	C157.338806,277.360748 155.965973,274.575592 150.856186,272.406128 
	C144.831436,269.848145 140.797012,264.179321 137.788727,258.017151 
	C135.335510,252.991928 132.131866,248.333023 129.097839,243.208252 
	C127.278595,239.299881 125.125748,235.829224 124.104950,232.052567 
	C123.068192,228.216812 126.897285,224.302429 131.061874,224.013855 
	C132.320023,223.926682 133.571121,223.738174 133.469177,222.832245 
	C134.492233,219.174896 134.469269,214.397064 136.840271,212.183609 
	C139.092773,210.080811 143.849350,210.660278 146.074066,210.295151 
	C148.792114,207.076797 150.939941,204.533630 153.807678,202.125870 
	C156.242310,202.687759 158.043686,202.908447 159.652740,203.585922 
	C162.508896,204.788483 162.133514,202.777603 162.296097,201.198883 
	C170.071274,195.553406 171.053192,195.547318 179.207550,201.597412 
	C184.045929,210.017059 188.612579,217.849304 192.776047,225.890320 
	C194.943802,230.076950 196.400452,234.631775 198.104141,239.480530 
	C198.020325,240.438812 197.986984,240.937698 198.004562,241.434769 
	C198.287247,249.433945 198.207382,257.263367 191.504913,263.275757 
	C190.671783,264.023071 190.672913,266.233551 190.970810,267.619080 
	C192.502487,274.742401 194.257462,281.817749 195.934448,288.909851 
z"/>
<path fill="#000000" opacity="1.000000" stroke="none" 
	d="
M279.001801,108.902618 
	C275.640991,99.478737 271.714966,90.210640 269.063690,80.591202 
	C265.809021,68.782684 263.619568,56.680584 260.969666,44.705391 
	C261.534515,44.341820 262.099365,43.978249 262.664215,43.614677 
	C286.909058,55.700912 311.153931,67.787148 335.771790,79.831345 
	C348.029297,85.643326 359.897156,91.531586 371.806732,97.334213 
	C376.466461,99.604553 381.219818,101.682709 386.719543,104.211128 
	C368.968781,115.361794 357.332764,130.680084 347.826111,148.654999 
	C345.541016,153.060684 343.727325,157.027451 341.913605,160.994202 
	C341.913605,160.994202 341.983795,160.992844 341.629425,161.091888 
	C340.492096,163.462936 339.709106,165.734970 338.926147,168.006989 
	C338.926147,168.006989 339.017639,168.016052 338.824432,168.048126 
	C338.326660,168.204300 338.181793,168.430542 338.196655,168.758926 
	C335.472046,176.230331 332.747406,183.701721 329.641541,191.470047 
	C327.798920,190.911911 326.337616,190.056839 324.855011,189.189331 
	C331.185394,180.347321 330.442566,177.748474 320.515076,172.896484 
	C324.399902,166.008652 324.529907,162.256622 315.832214,158.750793 
	C314.310852,158.094559 312.790009,157.845795 311.253204,157.594437 
	C313.079590,149.875061 310.950775,146.995941 303.733246,147.052719 
	C302.071960,147.065796 300.410919,147.106003 298.673523,147.064163 
	C298.597321,146.994614 298.417755,147.096252 298.222015,146.814972 
	C297.658722,146.278946 297.291138,146.024200 296.923584,145.769455 
	C294.172607,140.249039 291.421661,134.728607 288.317627,128.684601 
	C287.288940,126.607513 286.613312,125.054008 285.937683,123.500504 
	C285.937683,123.500511 285.968964,123.511757 285.981506,123.166084 
	C285.672089,122.522163 285.350189,122.223907 285.028259,121.925659 
	C285.028259,121.925659 285.011414,121.995087 285.013245,121.634201 
	C284.653351,120.685959 284.291595,120.098587 283.929871,119.511223 
	C283.929871,119.511223 283.984253,119.509071 284.005066,119.104042 
	C282.351196,115.433548 280.676514,112.168083 279.001801,108.902618 
z"/>
<path fill="#000000" opacity="1.000000" stroke="none" 
	d="
M445.051697,212.478210 
	C449.311829,232.007065 453.492432,251.151474 457.780365,270.787354 
	C454.299957,269.860901 450.952667,268.969879 446.990479,268.082550 
	C446.375641,268.086273 445.928009,267.960571 445.928009,267.960571 
	C445.928009,267.960571 445.990723,268.039246 445.861206,267.626587 
	C437.276001,266.800964 428.822510,266.308105 420.361908,266.070801 
	C419.237488,266.039276 418.076660,267.305298 416.932709,267.970428 
	C411.320526,268.451477 405.614258,268.448029 400.115906,269.515442 
	C388.993896,271.674530 377.984650,274.414490 366.463684,276.479370 
	C365.876678,274.461914 365.754944,272.880066 365.733429,272.600769 
	C369.354584,270.439026 374.034576,269.225647 375.347595,266.430603 
	C376.746826,263.451965 374.961609,258.977417 374.556335,255.055740 
	C380.667694,253.955856 383.098480,249.478760 379.544434,243.317795 
	C377.753387,240.213013 374.739716,237.820175 372.324951,235.065079 
	C371.436279,234.051132 370.680084,232.921036 369.863464,231.843903 
	C383.076691,199.740768 410.173126,151.480911 428.621552,138.920105 
	C431.774261,153.323959 434.846405,167.548767 438.010773,181.753006 
	C440.267029,191.880890 442.647217,201.981155 445.051697,212.478210 
z"/>
<path fill="#F47E23" opacity="1.000000" stroke="none" 
	d="
M369.496948,231.857788 
	C370.680084,232.921036 371.436279,234.051132 372.324951,235.065079 
	C374.739716,237.820175 377.753387,240.213013 379.544434,243.317795 
	C383.098480,249.478760 380.667694,253.955856 374.556335,255.055740 
	C374.961609,258.977417 376.746826,263.451965 375.347595,266.430603 
	C374.034576,269.225647 369.354584,270.439026 365.733429,272.600769 
	C365.754944,272.880066 365.876678,274.461914 366.046631,276.439941 
	C365.105682,281.325195 361.354523,282.524231 357.782623,282.448029 
	C354.664429,282.381531 354.522827,283.544312 353.783752,285.902618 
	C353.080902,288.145233 350.977814,289.949036 348.718689,291.999542 
	C343.769012,290.784668 338.801117,290.536011 335.575317,288.037842 
	C328.560822,282.605530 322.510376,275.942017 315.889801,269.977234 
	C314.353882,268.593445 312.112488,267.992737 310.124023,266.684448 
	C309.859650,264.891754 309.905762,263.360504 309.423676,262.019073 
	C308.469849,259.364899 307.224091,256.815674 306.307251,253.907059 
	C306.376404,250.035278 305.420624,246.265488 306.283661,242.972336 
	C307.689514,237.607880 305.251129,235.007095 300.995483,232.548584 
	C296.577545,227.562714 292.342285,222.855408 288.091400,217.807236 
	C287.948883,217.031464 287.821960,216.596573 288.162415,216.125748 
	C296.220612,214.488174 303.903961,213.224808 311.373962,211.181427 
	C317.727905,209.443329 324.198029,207.475037 328.636841,201.952240 
	C330.381958,205.510239 332.049866,209.110077 333.937103,212.591034 
	C334.316193,213.290268 335.534790,213.944275 336.356293,213.932297 
	C348.941223,213.748566 357.300629,221.147949 365.140808,229.642044 
	C366.122986,230.706146 367.783966,231.143768 369.496948,231.857788 
z"/>
<path fill="#FAB01A" opacity="1.000000" stroke="none" 
	d="
M328.794189,201.606323 
	C324.198029,207.475037 317.727905,209.443329 311.373962,211.181427 
	C303.903961,213.224808 296.220612,214.488174 287.750732,216.108337 
	C281.226013,215.104553 275.580322,214.082230 269.715698,212.805878 
	C268.637146,212.378113 267.777527,212.204376 266.953369,212.025589 
	C266.988831,212.020538 266.970764,212.089844 266.990540,211.746552 
	C265.361481,210.168076 263.712646,208.932877 261.741394,207.696991 
	C260.989227,207.703522 260.559479,207.710724 259.775696,207.498154 
	C254.572372,207.433685 249.723053,207.588989 244.587494,207.755463 
	C243.919510,207.758652 243.537735,207.750702 242.958679,207.464935 
	C242.425446,206.134415 242.089523,205.081680 241.774490,203.919418 
	C241.795380,203.809891 242.006866,203.739258 242.217834,203.719269 
	C242.704117,203.525177 242.804947,203.279251 242.830582,202.671631 
	C243.207642,202.088699 243.485413,201.795654 244.027740,201.509979 
	C244.447021,201.054565 244.601715,200.591782 244.853577,199.775482 
	C248.443863,189.620163 251.937012,179.818359 255.430145,170.016556 
	C261.124542,162.161743 268.746582,157.090958 277.940247,154.155350 
	C284.141541,152.175232 290.260345,149.936890 297.058746,147.559845 
	C297.940216,147.235840 298.178986,147.166046 298.417755,147.096252 
	C298.417755,147.096252 298.597321,146.994614 298.997498,147.309738 
	C309.663300,148.446915 311.166840,150.066437 309.595612,159.624161 
	C311.803955,159.459213 313.818329,159.308746 315.832733,159.158295 
	C324.529907,162.256622 324.399902,166.008652 320.515076,172.896484 
	C330.442566,177.748474 331.185394,180.347321 324.855011,189.189331 
	C326.337616,190.056839 327.798920,190.911911 329.602539,191.850571 
	C329.613739,195.042908 329.282654,198.151672 328.794189,201.606323 
z"/>
<path fill="#FED3CF" opacity="1.000000" stroke="none" 
	d="
M342.277527,161.020844 
	C343.727325,157.027451 345.541016,153.060684 347.708557,148.979828 
	C346.255432,152.926315 344.448456,156.986908 342.277527,161.020844 
z"/>
<path fill="#FED3CF" opacity="1.000000" stroke="none" 
	d="
M339.294464,167.973694 
	C339.709106,165.734970 340.492096,163.462936 341.619019,161.058350 
	C341.196259,163.263977 340.429535,165.602188 339.294464,167.973694 
z"/>
<path fill="#FED3CF" opacity="1.000000" stroke="none" 
	d="
M338.386658,168.680115 
	C338.181793,168.430542 338.326660,168.204300 338.831848,168.002762 
	C338.941284,168.191635 338.789337,168.416962 338.386658,168.680115 
z"/>
<path fill="#000000" opacity="1.000000" stroke="none" 
	d="
M190.869049,156.862411 
	C182.260101,154.590881 173.487366,152.800415 165.079468,149.938278 
	C151.493408,145.313431 137.793289,140.746536 124.807327,134.720078 
	C113.589104,129.513992 103.297981,122.310150 92.250809,115.586105 
	C91.877960,114.781677 91.851326,114.380600 91.824692,113.979515 
	C91.824692,113.979515 91.993095,113.673874 92.312729,113.358047 
	C94.442238,112.039528 96.252113,111.036819 98.061989,110.034111 
	C98.061989,110.034111 98.002266,110.007408 98.397209,110.010475 
	C101.907440,108.343765 105.022736,106.673996 108.138031,105.004211 
	C108.305862,104.996819 108.473694,104.989418 109.089310,104.904556 
	C109.810646,104.669281 109.952568,104.432533 109.962845,104.116852 
	C116.966705,100.919762 123.986572,97.757156 130.970078,94.516205 
	C138.463959,91.038391 145.923645,87.486923 154.010773,83.882782 
	C154.889435,83.590828 155.041656,83.319695 155.079987,82.984566 
	C155.079987,82.984566 154.992065,83.007263 155.388199,83.009422 
	C159.878922,81.023575 163.973511,79.035568 168.068100,77.047562 
	C168.068100,77.047554 168.006622,77.014908 168.370361,77.017059 
	C169.321060,76.657021 169.908051,76.294830 170.495041,75.932648 
	C170.495041,75.932648 170.498734,75.979767 170.889252,75.980881 
	C171.682236,75.632805 172.084717,75.283607 172.487198,74.934402 
	C172.487198,74.934402 172.494171,74.991364 172.839203,74.988266 
	C173.480606,74.664810 173.776993,74.344460 174.073380,74.024109 
	C174.073380,74.024109 174.005280,74.010338 174.326477,74.007118 
	C175.116089,73.678482 175.584488,73.353065 176.052887,73.027641 
	C187.459961,67.665840 198.867035,62.304043 210.645477,56.767685 
	C210.061752,61.106365 209.272141,65.003067 209.056061,68.931313 
	C208.232132,83.910202 212.378357,97.957291 217.991211,111.551399 
	C221.869751,120.945084 226.620972,129.978470 230.893646,139.870209 
	C229.230377,141.690018 227.655655,142.812485 227.180328,143.151291 
	C223.291061,141.195435 219.951431,138.079483 217.006577,138.416199 
	C213.685730,138.795914 210.720200,142.283188 207.467773,144.509476 
	C203.105698,141.173645 197.038300,141.585693 194.379425,146.316422 
	C192.597061,149.487640 191.997711,153.323776 190.869049,156.862411 
z"/>
<path fill="#059B93" opacity="1.000000" stroke="none" 
	d="
M191.170349,157.126495 
	C191.997711,153.323776 192.597061,149.487640 194.379425,146.316422 
	C197.038300,141.585693 203.105698,141.173645 207.467773,144.509476 
	C210.720200,142.283188 213.685730,138.795914 217.006577,138.416199 
	C219.951431,138.079483 223.291061,141.195435 227.180328,143.151291 
	C227.655655,142.812485 229.230377,141.690018 230.915771,140.234848 
	C235.906738,140.857559 240.052979,142.821503 241.531509,148.027878 
	C251.073715,144.311737 256.039856,147.400528 256.578278,157.495300 
	C256.785339,161.377518 255.721313,165.327530 255.333298,169.631592 
	C251.937012,179.818359 248.443863,189.620163 244.637390,199.852356 
	C244.137085,200.689362 243.950150,201.095993 243.763184,201.502609 
	C243.485413,201.795654 243.207642,202.088699 242.632904,202.710098 
	C242.079483,203.203064 241.969788,203.436661 242.006866,203.739258 
	C242.006866,203.739258 241.795380,203.809891 241.493805,204.024811 
	C240.257401,205.359207 239.322586,206.478683 238.072449,207.631989 
	C237.203568,208.135422 236.649994,208.605011 235.904572,209.395111 
	C232.716644,210.476166 229.746841,211.369705 226.718719,211.968124 
	C221.317566,213.035446 217.119797,215.145660 213.783173,220.164200 
	C209.290771,226.921097 203.443878,232.777435 198.178314,239.020279 
	C196.400452,234.631775 194.943802,230.076950 192.776047,225.890320 
	C188.612579,217.849304 184.045929,210.017059 179.475830,201.879776 
	C182.058014,199.567780 185.032349,197.695847 187.456482,195.273346 
	C188.448502,194.281982 188.871735,191.937302 188.491211,190.487076 
	C186.412399,182.564514 188.218979,175.114410 190.364838,167.549927 
	C191.281418,164.318832 191.135025,160.786194 191.170349,157.126495 
z"/>
<path fill="#FDDCB0" opacity="1.000000" stroke="none" 
	d="
M167.697388,76.888496 
	C163.973511,79.035568 159.878922,81.023575 155.399170,83.053482 
	C155.266541,82.593445 155.519073,82.091492 155.905273,81.327927 
	C159.801514,79.620689 163.564102,78.175056 167.697388,76.888496 
z"/>
<path fill="#FBD8B2" opacity="1.000000" stroke="none" 
	d="
M278.964844,109.297180 
	C280.676514,112.168083 282.351196,115.433548 283.982422,119.119141 
	C282.268555,116.256752 280.598206,112.974243 278.964844,109.297180 
z"/>
<path fill="#FBD8B2" opacity="1.000000" stroke="none" 
	d="
M285.830688,123.890762 
	C286.613312,125.054008 287.288940,126.607513 287.985748,128.542206 
	C287.245880,127.375931 286.484802,125.828476 285.830688,123.890762 
z"/>
<path fill="#FDDCB0" opacity="1.000000" stroke="none" 
	d="
M175.712509,73.010582 
	C175.584488,73.353065 175.116089,73.678482 174.325592,74.041847 
	C174.459717,73.717705 174.915924,73.355606 175.712509,73.010582 
z"/>
<path fill="#FDDCB0" opacity="1.000000" stroke="none" 
	d="
M170.100281,75.813812 
	C169.908051,76.294830 169.321060,76.657021 168.368561,77.051819 
	C168.570526,76.621284 169.138016,76.158134 170.100281,75.813812 
z"/>
<path fill="#FBD8B2" opacity="1.000000" stroke="none" 
	d="
M283.867493,119.902206 
	C284.291595,120.098587 284.653351,120.685959 285.048523,121.639847 
	C284.656342,121.435310 284.230713,120.864243 283.867493,119.902206 
z"/>
<path fill="#FDDCB0" opacity="1.000000" stroke="none" 
	d="
M173.719757,73.972000 
	C173.776993,74.344460 173.480606,74.664810 172.825241,74.963081 
	C172.766205,74.600624 173.066162,74.260254 173.719757,73.972000 
z"/>
<path fill="#FDDCB0" opacity="1.000000" stroke="none" 
	d="
M172.067444,74.904068 
	C172.084717,75.283607 171.682236,75.632805 170.873077,75.963699 
	C170.860184,75.588181 171.253937,75.230957 172.067444,74.904068 
z"/>
<path fill="#FBD8B2" opacity="1.000000" stroke="none" 
	d="
M284.968567,122.285820 
	C285.350189,122.223907 285.672089,122.522163 285.974182,123.181015 
	C285.605835,123.243073 285.257355,122.944527 284.968567,122.285820 
z"/>
<path fill="#FCE19E" opacity="1.000000" stroke="none" 
	d="
M298.222015,146.814972 
	C298.178986,147.166046 297.940216,147.235840 297.335083,147.376801 
	C296.933441,147.169250 296.898224,146.890533 296.893280,146.190628 
	C297.291138,146.024200 297.658722,146.278946 298.222015,146.814972 
z"/>
<path fill="#FDF0C5" opacity="1.000000" stroke="none" 
	d="
M161.873886,201.154602 
	C162.133514,202.777603 162.508896,204.788483 159.652740,203.585922 
	C158.043686,202.908447 156.242310,202.687759 154.156631,202.116318 
	C149.270401,200.905029 144.755096,199.838715 140.070892,198.399826 
	C147.085236,199.054947 154.268448,200.082642 161.873886,201.154602 
z"/>
<path fill="#FCDE9A" opacity="1.000000" stroke="none" 
	d="
M107.744827,104.993439 
	C105.022736,106.673996 101.907440,108.343765 98.406433,110.041855 
	C101.131020,108.374336 104.241318,106.678497 107.744827,104.993439 
z"/>
<path fill="#FCDE9A" opacity="1.000000" stroke="none" 
	d="
M97.675858,109.935669 
	C96.252113,111.036819 94.442238,112.039528 92.280312,113.186607 
	C93.715424,112.166405 95.502579,111.001816 97.675858,109.935669 
z"/>
<path fill="#FCDE9A" opacity="1.000000" stroke="none" 
	d="
M91.608261,114.029724 
	C91.851326,114.380600 91.877960,114.781677 91.896790,115.479919 
	C91.723259,115.211365 91.557541,114.645653 91.608261,114.029724 
z"/>
<path fill="#FCDE9A" opacity="1.000000" stroke="none" 
	d="
M109.842117,103.992966 
	C109.952568,104.432533 109.810646,104.669281 109.323265,104.810913 
	C109.313431,104.486183 109.517418,104.177628 109.842117,103.992966 
z"/>
<path fill="#FDDCB0" opacity="1.000000" stroke="none" 
	d="
M154.890198,83.082123 
	C155.041656,83.319695 154.889435,83.590828 154.386719,83.802330 
	C154.249207,83.523659 154.432617,83.314659 154.890198,83.082123 
z"/>
<path fill="#000000" opacity="1.000000" stroke="none" 
	d="
M412.045471,382.574646 
	C407.284973,388.403259 402.653076,393.895844 398.123505,399.471527 
	C392.984131,405.797913 387.945496,412.206024 382.845490,418.564514 
	C379.539337,422.686523 376.201752,426.783386 372.787415,431.003845 
	C368.797699,424.249451 365.343109,417.795898 361.322876,411.716400 
	C351.929138,397.510864 339.520874,386.171875 326.058502,375.957458 
	C319.931702,371.308868 313.485992,367.082275 307.263245,362.556580 
	C306.407654,361.934326 306.006012,360.687927 305.717468,359.403198 
	C311.534363,361.637207 314.646820,358.409027 317.485199,354.460052 
	C323.586792,362.811249 327.579437,362.145050 335.286346,351.411194 
	C341.461731,355.172424 345.242828,354.345612 348.223755,348.211426 
	C349.256500,346.086243 349.479889,343.567749 350.072937,341.228882 
	C350.318237,339.660339 350.563538,338.091766 350.950073,335.619843 
	C367.082947,332.837006 383.861267,329.881256 400.665253,327.079529 
	C406.134491,326.167664 411.670776,325.658051 418.071228,324.891296 
	C429.309631,324.803925 439.653259,324.789673 449.996857,324.775452 
	C452.070984,324.995789 454.145111,325.216095 457.481964,325.570557 
	C452.503052,331.777893 448.180389,337.116699 443.912628,342.498962 
	C436.519043,351.823273 429.176056,361.187683 421.777618,370.508118 
	C418.636017,374.465851 415.407990,378.355011 412.045471,382.574646 
z"/>
<path fill="#EC3227" opacity="1.000000" stroke="none" 
	d="
M349.776123,340.911011 
	C349.479889,343.567749 349.256500,346.086243 348.223755,348.211426 
	C345.242828,354.345612 341.461731,355.172424 335.286346,351.411194 
	C327.579437,362.145050 323.586792,362.811249 317.485199,354.460052 
	C314.646820,358.409027 311.534363,361.637207 305.669861,359.071960 
	C303.120422,357.997284 300.941833,356.926605 298.211639,355.645691 
	C297.031128,355.816406 296.402191,356.197388 295.773254,356.578339 
	C295.139557,356.604706 294.505829,356.631073 293.441071,356.331299 
	C292.309875,355.703644 291.609741,355.402161 290.909607,355.100647 
	C290.128998,354.485046 289.348389,353.869446 288.266846,352.710388 
	C286.970795,347.410187 285.139008,342.649231 285.162537,337.897522 
	C285.205505,329.215607 286.346313,320.539154 287.052826,311.483459 
	C290.088867,300.189362 294.931458,290.786713 306.613373,287.632690 
	C307.857300,280.479218 309.026489,273.755432 310.195679,267.031677 
	C312.112488,267.992737 314.353882,268.593445 315.889801,269.977234 
	C322.510376,275.942017 328.560822,282.605530 335.575317,288.037842 
	C338.801117,290.536011 343.769012,290.784668 348.351868,292.070923 
	C346.939453,292.588745 345.122131,293.088959 342.620728,293.777466 
	C343.852264,295.848572 344.950714,297.552826 345.909332,299.332397 
	C350.345947,307.568573 351.816071,315.976227 349.383942,325.379059 
	C348.156403,330.124664 349.369659,335.501648 349.776123,340.911011 
z"/>
<path fill="#E3B1C2" opacity="1.000000" stroke="none" 
	d="
M449.846985,324.422485 
	C439.653259,324.789673 429.309631,324.803925 418.517487,324.779968 
	C418.995239,324.232635 419.916290,323.292450 420.848602,323.281189 
	C429.906006,323.171692 438.965363,323.202759 448.023804,323.255951 
	C448.583160,323.259247 449.139404,323.786224 449.846985,324.422485 
z"/>
<path fill="#F0CCDB" opacity="1.000000" stroke="none" 
	d="
M417.362366,268.015137 
	C418.076660,267.305298 419.237488,266.039276 420.361908,266.070801 
	C428.822510,266.308105 437.276001,266.800964 445.903442,267.599243 
	C438.773804,267.697632 431.474182,267.323669 424.169952,267.178101 
	C422.050690,267.135864 419.918396,267.747803 417.362366,268.015137 
z"/>
<path fill="#F0CCDB" opacity="1.000000" stroke="none" 
	d="
M446.067413,268.012451 
	C445.928009,267.960571 446.375641,268.086273 446.596985,268.157318 
	C446.818329,268.228363 446.433899,268.336731 446.433899,268.336731 
	C446.433899,268.336731 446.206818,268.064301 446.067413,268.012451 
z"/>
<path fill="#000000" opacity="1.000000" stroke="none" 
	d="
M259.904327,391.945557 
	C269.136139,400.055328 278.337433,408.200165 287.606659,416.266968 
	C303.143555,429.788452 316.117493,445.480774 327.585938,463.257263 
	C326.673462,464.147705 325.393494,464.555237 323.898071,464.575073 
	C306.118134,464.177887 288.553589,464.168427 270.526855,464.080872 
	C254.381058,464.052673 238.697433,464.102509 222.549759,464.075897 
	C214.131622,463.999664 206.176712,464.058563 198.224182,463.947052 
	C196.756897,463.926483 195.299271,463.216492 193.837189,462.824738 
	C201.899857,450.405182 205.387756,436.370117 207.938889,422.068817 
	C208.763290,417.447388 208.661087,412.660675 209.000183,407.037170 
	C208.961487,397.414642 208.905365,388.704468 208.849243,379.994293 
	C208.940079,376.706696 209.030914,373.419128 209.541443,369.630768 
	C210.628143,369.959930 211.920486,370.834229 211.865234,371.612915 
	C211.324814,379.230927 215.060654,382.762634 222.682236,381.596436 
	C221.184036,391.549866 225.149307,394.683411 236.050003,392.160187 
	C241.040237,400.304016 243.910736,402.008820 249.456711,399.134155 
	C253.180756,397.203888 256.438141,394.373291 259.904327,391.945557 
z"/>
<path fill="#AE3A64" opacity="1.000000" stroke="none" 
	d="
M259.933411,391.579651 
	C256.438141,394.373291 253.180756,397.203888 249.456711,399.134155 
	C243.910736,402.008820 241.040237,400.304016 236.050003,392.160187 
	C225.149307,394.683411 221.184036,391.549866 222.682236,381.596436 
	C215.060654,382.762634 211.324814,379.230927 211.865234,371.612915 
	C211.920486,370.834229 210.628143,369.959930 209.586853,369.190674 
	C208.636795,368.609131 208.061020,367.966949 207.208679,366.828125 
	C206.329498,365.854523 205.726868,365.377533 205.124237,364.900543 
	C205.039154,364.503357 204.954071,364.106201 204.883896,362.988464 
	C204.783661,361.120483 204.668549,359.973053 204.553421,358.825653 
	C204.736908,357.855896 204.920395,356.886169 205.472229,355.435059 
	C206.136124,353.966309 206.431671,352.978882 206.727234,351.991455 
	C206.846069,351.556854 206.964920,351.122223 207.138824,350.353729 
	C210.390152,347.518585 213.474045,344.854980 216.805496,342.549072 
	C224.353119,337.324768 232.027084,332.283173 239.633240,327.143005 
	C240.154968,326.790405 240.540527,326.236359 241.396072,325.532166 
	C247.809494,324.952637 253.835770,323.181091 259.819427,325.703705 
	C260.346802,325.926025 261.405060,324.792938 262.254150,324.363220 
	C270.507965,320.186646 278.769714,316.025757 287.029236,311.860413 
	C286.346313,320.539154 285.205505,329.215607 285.162537,337.897522 
	C285.139008,342.649231 286.970795,347.410187 288.022156,352.527222 
	C286.623444,353.025909 285.168518,353.164307 283.759399,353.298370 
	C283.485138,353.959259 283.107788,354.422119 283.140961,354.853333 
	C284.254669,369.326263 275.901794,378.141754 265.052399,385.623566 
	C263.031708,387.017029 261.642914,389.326843 259.933411,391.579651 
z"/>
<path fill="#E4F1FF" opacity="1.000000" stroke="none" 
	d="
M223.013794,464.152344 
	C238.697433,464.102509 254.381058,464.052673 270.526672,464.328064 
	C270.988647,464.653259 270.957672,465.146606 270.957672,465.146606 
	C267.265076,465.201447 263.572510,465.256317 259.427216,465.408997 
	C247.289307,465.406067 235.604111,465.305359 223.463989,464.895996 
	C223.009064,464.587311 223.013794,464.152344 223.013794,464.152344 
z"/>
<path fill="#CBDFF5" opacity="1.000000" stroke="none" 
	d="
M222.549759,464.075897 
	C223.013794,464.152344 223.009064,464.587311 223.002350,464.804718 
	C213.790298,465.057861 204.584625,465.137451 195.380188,465.063141 
	C194.435349,465.055511 191.418228,466.338135 193.484894,462.919952 
	C195.299271,463.216492 196.756897,463.926483 198.224182,463.947052 
	C206.176712,464.058563 214.131622,463.999664 222.549759,464.075897 
z"/>
<path fill="#99BCE3" opacity="1.000000" stroke="none" 
	d="
M208.527954,380.270233 
	C208.905365,388.704468 208.961487,397.414642 208.936386,406.598419 
	C208.577713,403.701843 208.119904,400.334656 208.063766,396.960815 
	C207.972809,391.491577 208.145355,386.017944 208.527954,380.270233 
z"/>
<path fill="#5F459A" opacity="1.000000" stroke="none" 
	d="
M204.264404,358.955688 
	C204.668549,359.973053 204.783661,361.120483 204.804596,362.694275 
	C204.465378,361.775665 204.220383,360.430725 204.264404,358.955688 
z"/>
<path fill="#5F459A" opacity="1.000000" stroke="none" 
	d="
M206.454590,352.148682 
	C206.431671,352.978882 206.136124,353.966309 205.525055,355.068176 
	C205.533676,354.223694 205.857803,353.264801 206.454590,352.148682 
z"/>
<path fill="#5F459A" opacity="1.000000" stroke="none" 
	d="
M205.113525,365.225830 
	C205.726868,365.377533 206.329498,365.854523 206.942642,366.640533 
	C206.336380,366.483398 205.719604,366.017273 205.113525,365.225830 
z"/>
<path fill="#FFFFFF" opacity="1.000000" stroke="none" 
	d="
M271.348633,465.283020 
	C270.957672,465.146606 270.988647,464.653259 270.988831,464.406097 
	C288.553589,464.168427 306.118134,464.177887 323.494690,464.617798 
	C321.488708,465.247101 319.670685,465.445984 317.852661,465.644897 
	C302.481628,465.569733 287.110626,465.494598 271.348633,465.283020 
z"/>
<path fill="#B09FD5" opacity="1.000000" stroke="none" 
	d="
M318.301300,465.794373 
	C319.670685,465.445984 321.488708,465.247101 323.710114,465.005463 
	C325.393494,464.555237 326.673462,464.147705 327.912415,463.360474 
	C329.847198,464.563812 329.647797,465.788910 327.094330,465.978821 
	C324.329041,466.184540 321.532715,465.973267 318.301300,465.794373 
z"/>
<path fill="#AE3A64" opacity="1.000000" stroke="none" 
	d="
M290.979126,355.427124 
	C291.609741,355.402161 292.309875,355.703644 293.126892,356.280090 
	C292.512085,356.287903 291.780365,356.020752 290.979126,355.427124 
z"/>
<path fill="#AE3A64" opacity="1.000000" stroke="none" 
	d="
M296.091034,356.700073 
	C296.402191,356.197388 297.031128,355.816406 297.825134,355.637390 
	C297.463104,356.166809 296.935974,356.494293 296.091034,356.700073 
z"/>
<path fill="#000000" opacity="1.000000" stroke="none" 
	d="
M287.052856,311.483459 
	C278.769714,316.025757 270.507965,320.186646 262.254150,324.363220 
	C261.405060,324.792938 260.346802,325.926025 259.819427,325.703705 
	C253.835770,323.181091 247.809494,324.952637 241.491577,325.195343 
	C233.594757,321.449310 225.975388,317.863068 218.457977,314.074585 
	C217.262421,313.472107 216.074387,312.110931 215.649780,310.843597 
	C212.962067,302.821503 207.581573,297.369537 200.211288,293.512329 
	C198.628906,292.684174 197.540344,290.912506 196.079376,289.242676 
	C194.257462,281.817749 192.502487,274.742401 190.970810,267.619080 
	C190.672913,266.233551 190.671783,264.023071 191.504913,263.275757 
	C198.207382,257.263367 198.287247,249.433945 198.004562,241.434769 
	C197.986984,240.937698 198.020325,240.438812 198.104141,239.480530 
	C203.443878,232.777435 209.290771,226.921097 213.783173,220.164200 
	C217.119797,215.145660 221.317566,213.035446 226.718719,211.968124 
	C229.746841,211.369705 232.716644,210.476166 236.362701,209.365234 
	C245.367081,208.971741 253.721481,208.928619 262.366394,209.052261 
	C264.094879,210.175964 265.532806,211.132904 266.970764,212.089844 
	C266.970764,212.089844 266.988831,212.020538 267.031616,212.266495 
	C267.350830,212.688278 267.627319,212.864090 268.046692,213.388672 
	C274.383820,217.216812 281.279938,217.526505 288.106995,218.148102 
	C292.342285,222.855408 296.577545,227.562714 300.898041,232.925262 
	C304.444305,237.169632 304.966125,241.296692 304.236847,246.163040 
	C303.856689,248.699722 305.415833,251.527039 306.098999,254.223068 
	C307.224091,256.815674 308.469849,259.364899 309.423676,262.019073 
	C309.905762,263.360504 309.859650,264.891754 310.124023,266.684448 
	C309.026489,273.755432 307.857300,280.479218 306.613373,287.632690 
	C294.931458,290.786713 290.088867,300.189362 287.052856,311.483459 
z"/>
<path fill="#FCE19E" opacity="1.000000" stroke="none" 
	d="
M315.832214,158.750793 
	C313.818329,159.308746 311.803955,159.459213 309.595612,159.624161 
	C311.166840,150.066437 309.663300,148.446915 299.073730,147.379288 
	C300.410919,147.106003 302.071960,147.065796 303.733246,147.052719 
	C310.950775,146.995941 313.079590,149.875061 311.253204,157.594437 
	C312.790009,157.845795 314.310852,158.094559 315.832214,158.750793 
z"/>
<path fill="#FCCC9E" opacity="1.000000" stroke="none" 
	d="
M306.307251,253.907059 
	C305.415833,251.527039 303.856689,248.699722 304.236847,246.163040 
	C304.966125,241.296692 304.444305,237.169632 301.080688,233.203827 
	C305.251129,235.007095 307.689514,237.607880 306.283661,242.972336 
	C305.420624,246.265488 306.376404,250.035278 306.307251,253.907059 
z"/>
<path fill="#FBDB92" opacity="1.000000" stroke="none" 
	d="
M288.091400,217.807236 
	C281.279938,217.526505 274.383820,217.216812 268.385132,213.375000 
	C269.032013,213.028381 269.483307,213.044144 269.934631,213.059906 
	C275.580322,214.082230 281.226013,215.104553 287.283356,216.144287 
	C287.821960,216.596573 287.948883,217.031464 288.091400,217.807236 
z"/>
<path fill="#FEFFCA" opacity="1.000000" stroke="none" 
	d="
M262.075867,208.885498 
	C253.721481,208.928619 245.367081,208.971741 236.554565,209.044724 
	C236.649994,208.605011 237.203568,208.135422 238.541885,207.761490 
	C240.603088,207.819016 241.879532,207.780869 243.155975,207.742737 
	C243.537735,207.750702 243.919510,207.758652 245.055801,207.858307 
	C250.583450,207.872650 255.356583,207.795288 260.129700,207.717941 
	C260.559479,207.710724 260.989227,207.703522 261.752258,207.994064 
	C262.082306,208.489731 262.079071,208.687622 262.075867,208.885498 
z"/>
<path fill="#E9C675" opacity="1.000000" stroke="none" 
	d="
M259.775696,207.498154 
	C255.356583,207.795288 250.583450,207.872650 245.342041,207.847153 
	C249.723053,207.588989 254.572372,207.433685 259.775696,207.498154 
z"/>
<path fill="#E9C675" opacity="1.000000" stroke="none" 
	d="
M262.366394,209.052261 
	C262.079071,208.687622 262.082306,208.489731 262.074646,207.994751 
	C263.712646,208.932877 265.361481,210.168076 266.990540,211.746552 
	C265.532806,211.132904 264.094879,210.175964 262.366394,209.052261 
z"/>
<path fill="#E9C675" opacity="1.000000" stroke="none" 
	d="
M242.958679,207.464935 
	C241.879532,207.780869 240.603088,207.819016 238.857208,207.727661 
	C239.322586,206.478683 240.257401,205.359207 241.472916,204.134338 
	C242.089523,205.081680 242.425446,206.134415 242.958679,207.464935 
z"/>
<path fill="#E9C675" opacity="1.000000" stroke="none" 
	d="
M269.715698,212.805878 
	C269.483307,213.044144 269.032013,213.028381 268.242249,213.026260 
	C267.627319,212.864090 267.350830,212.688278 266.996155,212.271545 
	C267.777527,212.204376 268.637146,212.378113 269.715698,212.805878 
z"/>
<path fill="#E9C675" opacity="1.000000" stroke="none" 
	d="
M244.027756,201.509979 
	C243.950150,201.095993 244.137085,200.689362 244.540222,200.205872 
	C244.601715,200.591782 244.447021,201.054565 244.027756,201.509979 
z"/>
<path fill="#E9C675" opacity="1.000000" stroke="none" 
	d="
M242.217834,203.719269 
	C241.969788,203.436661 242.079483,203.203064 242.533630,202.999969 
	C242.804947,203.279251 242.704117,203.525177 242.217834,203.719269 
z"/>
</svg>